<svg width="40" height="40" viewBox="0 0 40 40" fill="none" xmlns="http://www.w3.org/2000/svg">
<path d="M35.8594 17.6562L25.9469 14.0531L22.3438 4.1406C22.1662 3.66215 21.8464 3.24952 21.4274 2.95813C21.0085 2.66674 20.5103 2.51056 20 2.51056C19.4897 2.51056 18.9915 2.66674 18.5726 2.95813C18.1536 3.24952 17.8338 3.66215 17.6563 4.1406L14.0531 14.0531L4.14063 17.6562C3.66218 17.8338 3.24955 18.1536 2.95816 18.5725C2.66677 18.9915 2.51059 19.4896 2.51059 20C2.51059 20.5103 2.66677 21.0084 2.95816 21.4274C3.24955 21.8464 3.66218 22.1661 4.14063 22.3437L14.0531 25.9484L17.6563 35.8593C17.8338 36.3378 18.1536 36.7504 18.5726 37.0418C18.9915 37.3332 19.4897 37.4894 20 37.4894C20.5103 37.4894 21.0085 37.3332 21.4274 37.0418C21.8464 36.7504 22.1662 36.3378 22.3438 35.8593L25.9484 25.9468L35.8594 22.3437C36.3378 22.1661 36.7505 21.8464 37.0418 21.4274C37.3332 21.0084 37.4894 20.5103 37.4894 20C37.4894 19.4896 37.3332 18.9915 37.0418 18.5725C36.7505 18.1536 36.3378 17.8338 35.8594 17.6562ZM24.5438 23.7968C24.3723 23.8593 24.2166 23.9585 24.0876 24.0875C23.9585 24.2165 23.8593 24.3723 23.7969 24.5437L20 34.9843L16.2031 24.5437C16.1407 24.3723 16.0415 24.2165 15.9125 24.0875C15.7834 23.9585 15.6277 23.8593 15.4563 23.7968L5.01563 20L15.4563 16.2031C15.6277 16.1407 15.7834 16.0414 15.9125 15.9124C16.0415 15.7834 16.1407 15.6277 16.2031 15.4562L20 5.0156L23.7969 15.4562C23.8593 15.6277 23.9585 15.7834 24.0876 15.9124C24.2166 16.0414 24.3723 16.1407 24.5438 16.2031L34.9844 20L24.5438 23.7968Z" fill="#838386"/>
</svg>
