<svg width="40" height="40" viewBox="0 0 40 40" fill="none" xmlns="http://www.w3.org/2000/svg">
<path d="M37.5 20C37.504 20.5127 37.3481 21.0139 37.0541 21.4339C36.7601 21.854 36.3425 22.172 35.8594 22.3437L25.9469 25.9484L22.3438 35.8593C22.1662 36.3378 21.8464 36.7504 21.4274 37.0418C21.0085 37.3332 20.5103 37.4894 20 37.4894C19.4897 37.4894 18.9915 37.3332 18.5726 37.0418C18.1536 36.7504 17.8338 36.3378 17.6563 35.8593L14.0531 25.9468L4.14063 22.3437C3.66218 22.1661 3.24955 21.8464 2.95816 21.4274C2.66677 21.0084 2.51059 20.5103 2.51059 20C2.51059 19.4896 2.66677 18.9915 2.95816 18.5725C3.24955 18.1536 3.66218 17.8338 4.14063 17.6562L14.0531 14.0531L17.6563 4.1406C17.8338 3.66215 18.1536 3.24952 18.5726 2.95813C18.9915 2.66674 19.4897 2.51056 20 2.51056C20.5103 2.51056 21.0085 2.66674 21.4274 2.95813C21.8464 3.24952 22.1662 3.66215 22.3438 4.1406L25.9484 14.0531L35.8594 17.6562C36.3425 17.828 36.7601 18.146 37.0541 18.566C37.3481 18.9861 37.504 19.4873 37.5 20Z" fill="#F1F3F5"/>
</svg>
