<svg width="20" height="20" viewBox="0 0 20 20" fill="none" xmlns="http://www.w3.org/2000/svg">
<path d="M18.3039 8.97268L14.7883 12.0063L15.8594 16.543C15.9185 16.7893 15.9033 17.0475 15.8156 17.2852C15.728 17.5228 15.572 17.7291 15.3671 17.8781C15.1623 18.0271 14.9179 18.112 14.6649 18.1222C14.4118 18.1323 14.1614 18.0673 13.9453 17.9352L10 15.5071L6.05234 17.9352C5.83627 18.0665 5.58617 18.131 5.33354 18.1204C5.08091 18.1099 4.83705 18.0249 4.63266 17.876C4.42826 17.7272 4.27248 17.5212 4.18492 17.284C4.09737 17.0467 4.08195 16.7889 4.14062 16.543L5.21562 12.0063L1.7 8.97268C1.50882 8.80746 1.37056 8.58957 1.30248 8.34623C1.2344 8.1029 1.23952 7.8449 1.3172 7.60445C1.39487 7.36401 1.54166 7.15178 1.73924 6.99426C1.93681 6.83675 2.17642 6.74093 2.42812 6.71878L7.0375 6.3469L8.81562 2.04378C8.91187 1.80926 9.07568 1.60866 9.28623 1.46748C9.49677 1.3263 9.74454 1.25092 9.99804 1.25092C10.2515 1.25092 10.4993 1.3263 10.7099 1.46748C10.9204 1.60866 11.0842 1.80926 11.1805 2.04378L12.9578 6.3469L17.5672 6.71878C17.8194 6.74011 18.0597 6.83539 18.258 6.99269C18.4563 7.14998 18.6037 7.3623 18.6819 7.60304C18.7601 7.84377 18.7654 8.10222 18.6974 8.346C18.6293 8.58978 18.4908 8.80805 18.2992 8.97346L18.3039 8.97268Z" fill="#FCC419"/>
</svg>
