<svg width="171" height="57" viewBox="0 0 171 57" fill="none" xmlns="http://www.w3.org/2000/svg">
<path d="M52.2505 57V15.1167H60.0809V20.1539H60.5428C60.9534 19.4135 61.5326 18.6269 62.2804 17.794C63.0283 16.9478 64.04 16.2273 65.3158 15.6324C66.5916 15.0243 68.2192 14.7202 70.1988 14.7202C72.8089 14.7202 75.1624 15.3217 77.2593 16.5248C79.3709 17.7147 81.0425 19.4796 82.2743 21.8197C83.5207 24.1465 84.1439 27.0022 84.1439 30.3867C84.1439 33.7315 83.5354 36.574 82.3183 38.9141C81.1012 41.2541 79.4442 43.0389 77.3473 44.2684C75.2504 45.498 72.8749 46.1127 70.2208 46.1127C68.2852 46.1127 66.6795 45.8219 65.4038 45.2402C64.128 44.6584 63.1016 43.9578 62.3245 43.138C61.562 42.3052 60.968 41.5186 60.5428 40.7782H60.2129V57H52.2505ZM60.0589 30.3471C60.0589 32.3169 60.3668 34.0422 60.9827 35.523C61.6133 37.0036 62.515 38.1605 63.6882 38.9934C64.8759 39.8131 66.3129 40.2229 67.9992 40.2229C69.7589 40.2229 71.2326 39.7998 72.4203 38.9537C73.6081 38.0944 74.5026 36.9243 75.1038 35.4437C75.7197 33.9497 76.0276 32.2508 76.0276 30.3471C76.0276 28.4564 75.7269 26.7774 75.1257 25.3099C74.5245 23.8425 73.6301 22.6923 72.4423 21.8593C71.2545 21.0264 69.7736 20.61 67.9992 20.61C66.2983 20.61 64.8539 21.0132 63.6662 21.8197C62.4784 22.6261 61.5766 23.7565 60.9607 25.2108C60.3595 26.665 60.0589 28.3771 60.0589 30.3471Z" />
<path d="M97.0669 4.96327V45.5773H89.1044V4.96327H97.0669Z" />
<path d="M118.133 46.1722C114.834 46.1722 111.974 45.5178 109.555 44.2089C107.136 42.9001 105.259 41.0691 103.924 38.7157C102.604 36.3624 101.944 33.6125 101.944 30.466C101.944 27.3195 102.604 24.563 103.924 22.1965C105.259 19.8299 107.136 17.9922 109.555 16.6834C111.974 15.3746 114.834 14.7202 118.133 14.7202C121.432 14.7202 124.292 15.3746 126.711 16.6834C129.131 17.9922 131.001 19.8299 132.321 22.1965C133.655 24.563 134.321 27.3195 134.321 30.466C134.321 33.6125 133.655 36.3624 132.321 38.7157C131.001 41.0691 129.131 42.9001 126.711 44.2089C124.292 45.5178 121.432 46.1722 118.133 46.1722ZM118.177 40.4212C119.966 40.4212 121.462 39.9783 122.664 39.0925C123.866 38.1936 124.761 36.9905 125.348 35.4833C125.949 33.9761 126.25 32.2971 126.25 30.4462C126.25 28.5821 125.949 26.8965 125.348 25.3892C124.761 23.8689 123.866 22.6592 122.664 21.7602C121.462 20.8612 119.966 20.4117 118.177 20.4117C116.344 20.4117 114.82 20.8612 113.602 21.7602C112.4 22.6592 111.498 23.8689 110.897 25.3892C110.31 26.8965 110.017 28.5821 110.017 30.4462C110.017 32.2971 110.31 33.9761 110.897 35.4833C111.498 36.9905 112.4 38.1936 113.602 39.0925C114.82 39.9783 116.344 40.4212 118.177 40.4212Z" />
<path d="M139.222 45.5773V15.1168H147.184V45.5773H139.222ZM143.225 10.7936C141.963 10.7936 140.878 10.4168 139.97 9.66324C139.06 8.89644 138.606 7.9776 138.606 6.90672C138.606 5.82262 139.06 4.90379 139.97 4.1502C140.878 3.3834 141.963 3 143.225 3C144.501 3 145.586 3.3834 146.48 4.1502C147.39 4.90379 147.844 5.82262 147.844 6.90672C147.844 7.9776 147.39 8.89644 146.48 9.66324C145.586 10.4168 144.501 10.7936 143.225 10.7936Z" />
<path d="M170.384 15.1168V20.6695H150.962V15.1168H170.384ZM155.757 7.81895H163.719V36.4154C163.719 37.3805 163.881 38.1208 164.203 38.6365C164.541 39.1388 164.98 39.4826 165.523 39.6676C166.066 39.8528 166.667 39.9453 167.326 39.9453C167.826 39.9453 168.28 39.9122 168.69 39.8461C169.116 39.78 169.438 39.7205 169.659 39.6676L171 45.2798C170.575 45.4121 169.966 45.5575 169.174 45.7162C168.397 45.8748 167.444 45.9673 166.315 45.9937C164.321 46.0466 162.524 45.7756 160.926 45.1807C159.328 44.5725 158.06 43.6338 157.121 42.3647C156.197 41.0955 155.742 39.509 155.757 37.6052V7.81895Z" />
<path d="M45.3831 45.3831C44.6535 46.1211 43.7709 46.6732 42.8579 46.9627C41.945 47.2522 41.0472 47.2646 40.2891 46.9982L24.6206 41.6483L6.61528 52.0135C5.74222 52.51 4.81261 52.7616 3.95136 52.7344C3.09011 52.7073 2.33846 52.4027 1.7974 51.8617C1.25634 51.3206 0.951778 50.569 0.924638 49.7077C0.897498 48.8465 1.14908 47.9169 1.64558 47.0438L12.013 29.0362L6.66083 13.3699C6.40777 12.6085 6.42796 11.7134 6.71869 10.8048C7.00943 9.89617 7.55678 9.01764 8.28721 8.2872C9.01765 7.55677 9.89617 7.00942 10.8048 6.71869C11.7134 6.42795 12.6085 6.40776 13.3699 6.66083L29.0363 12.013L47.0438 1.64557C47.9169 1.14907 48.8465 0.897491 49.7077 0.924631C50.569 0.951771 51.3206 1.25633 51.8617 1.79739C52.4027 2.33845 52.7073 3.0901 52.7344 3.95135C52.7616 4.81261 52.51 5.74221 52.0135 6.61527L41.6477 24.6245L46.9982 40.2891C47.2646 41.0472 47.2522 41.945 46.9627 42.8579C46.6732 43.7709 46.1211 44.6535 45.3831 45.3831Z" />
</svg>
