<svg width="171" height="57" viewBox="0 0 171 57" fill="none" xmlns="http://www.w3.org/2000/svg">
<path d="M51.3279 56.0774V14.1941H59.1583V19.2312H59.6202C60.0308 18.4909 60.61 17.7043 61.3578 16.8713C62.1057 16.0252 63.1174 15.3046 64.3932 14.7097C65.669 14.1016 67.2966 13.7975 69.2761 13.7975C71.8863 13.7975 74.2398 14.3991 76.3367 15.6021C78.4482 16.792 80.1199 18.557 81.3517 20.897C82.598 23.2239 83.2213 26.0796 83.2213 29.4641C83.2213 32.8089 82.6127 35.6514 81.3956 37.9914C80.1785 40.3315 78.5216 42.1163 76.4247 43.3458C74.3278 44.5754 71.9523 45.1901 69.2982 45.1901C67.3625 45.1901 65.7569 44.8993 64.4812 44.3175C63.2054 43.7358 62.179 43.0351 61.4018 42.2154C60.6393 41.3826 60.0454 40.5959 59.6202 39.8555H59.2903V56.0774H51.3279ZM59.1363 29.4244C59.1363 31.3943 59.4442 33.1196 60.0601 34.6003C60.6906 36.081 61.5924 37.2378 62.7655 38.0707C63.9533 38.8905 65.3903 39.3002 67.0766 39.3002C68.8362 39.3002 70.3099 38.8772 71.4977 38.0311C72.6855 37.1717 73.5799 36.0017 74.1811 34.521C74.797 33.0271 75.1049 31.3281 75.1049 29.4244C75.1049 27.5338 74.8043 25.8548 74.2031 24.3873C73.6019 22.9198 72.7074 21.7696 71.5197 20.9367C70.3319 20.1038 68.851 19.6874 67.0766 19.6874C65.3757 19.6874 63.9313 20.0906 62.7436 20.897C61.5558 21.7035 60.654 22.8339 60.0381 24.2882C59.4369 25.7424 59.1363 27.4545 59.1363 29.4244Z" fill="#F1F3F5"/>
<path d="M96.1443 4.04063V44.6547H88.1818V4.04063H96.1443Z" fill="#F1F3F5"/>
<path d="M117.211 45.2496C113.912 45.2496 111.052 44.5952 108.633 43.2863C106.213 41.9775 104.336 40.1464 103.002 37.7931C101.682 35.4398 101.022 32.6899 101.022 29.5434C101.022 26.3969 101.682 23.6403 103.002 21.2738C104.336 18.9073 106.213 17.0696 108.633 15.7608C111.052 14.4519 113.912 13.7975 117.211 13.7975C120.51 13.7975 123.37 14.4519 125.788 15.7608C128.208 17.0696 130.078 18.9073 131.398 21.2738C132.732 23.6403 133.399 26.3969 133.399 29.5434C133.399 32.6899 132.732 35.4398 131.398 37.7931C130.078 40.1464 128.208 41.9775 125.788 43.2863C123.37 44.5952 120.51 45.2496 117.211 45.2496ZM117.255 39.4986C119.043 39.4986 120.539 39.0557 121.742 38.1699C122.944 37.2709 123.839 36.0678 124.425 34.5607C125.026 33.0534 125.327 31.3744 125.327 29.5235C125.327 27.6595 125.026 25.9738 124.425 24.4666C123.839 22.9463 122.944 21.7365 121.742 20.8376C120.539 19.9385 119.043 19.489 117.255 19.489C115.422 19.489 113.897 19.9385 112.679 20.8376C111.477 21.7365 110.575 22.9463 109.974 24.4666C109.387 25.9738 109.094 27.6595 109.094 29.5235C109.094 31.3744 109.387 33.0534 109.974 34.5607C110.575 36.0678 111.477 37.2709 112.679 38.1699C113.897 39.0557 115.422 39.4986 117.255 39.4986Z" fill="#F1F3F5"/>
<path d="M138.299 44.6547V14.1941H146.262V44.6547H138.299ZM142.303 9.87094C141.041 9.87094 139.956 9.49418 139.047 8.74059C138.137 7.97379 137.683 7.05495 137.683 5.98408C137.683 4.89997 138.137 3.98114 139.047 3.22755C139.956 2.46075 141.041 2.07735 142.303 2.07735C143.578 2.07735 144.663 2.46075 145.557 3.22755C146.467 3.98114 146.921 4.89997 146.921 5.98408C146.921 7.05495 146.467 7.97379 145.557 8.74059C144.663 9.49418 143.578 9.87094 142.303 9.87094Z" fill="#F1F3F5"/>
<path d="M169.461 14.1941V19.7469H150.04V14.1941H169.461ZM154.834 6.89631H162.797V35.4927C162.797 36.4578 162.959 37.1982 163.281 37.7138C163.618 38.2162 164.058 38.5599 164.6 38.745C165.143 38.9301 165.744 39.0226 166.404 39.0226C166.903 39.0226 167.357 38.9896 167.768 38.9235C168.193 38.8574 168.515 38.7979 168.736 38.745L170.077 44.3572C169.652 44.4894 169.043 44.6348 168.251 44.7935C167.474 44.9521 166.521 45.0447 165.392 45.0711C163.398 45.124 161.602 44.853 160.003 44.2581C158.405 43.6499 157.137 42.7112 156.198 41.442C155.275 40.1728 154.82 38.5864 154.834 36.6826V6.89631Z" fill="#F1F3F5"/>
<path d="M44.4605 44.4604C43.7309 45.1985 42.8482 45.7506 41.9353 46.0401C41.0224 46.3295 40.1245 46.3419 39.3665 46.0756L23.698 40.7256L5.69266 51.0908C4.81959 51.5873 3.88999 51.8389 3.02874 51.8118C2.16749 51.7846 1.41584 51.4801 0.874776 50.939C0.333714 50.398 0.0291552 49.6463 0.00201393 48.7851C-0.0251259 47.9238 0.226452 46.9942 0.722954 46.1211L11.0904 28.1136L5.73821 12.4473C5.48515 11.6859 5.50534 10.7907 5.79607 9.88212C6.08681 8.97352 6.63416 8.09499 7.36459 7.36456C8.09502 6.63413 8.97355 6.08678 9.88215 5.79604C10.7907 5.50531 11.6859 5.48512 12.4473 5.73818L28.1136 11.0904L46.1212 0.722925C46.9942 0.226424 47.9238 -0.0251542 48.7851 0.0019847C49.6463 0.0291249 50.398 0.333684 50.9391 0.874746C51.4801 1.41581 51.7847 2.16746 51.8118 3.02871C51.839 3.88996 51.5874 4.81956 51.0909 5.69263L40.7251 23.7018L46.0756 39.3665C46.342 40.1245 46.3295 41.0224 46.0401 41.9353C45.7506 42.8482 45.1985 43.7308 44.4605 44.4604Z" fill="#F1F3F5"/>
</svg>
