<svg width="20" height="20" viewBox="0 0 20 20" fill="none" xmlns="http://www.w3.org/2000/svg">
<path d="M18.125 9.99999V14.375C18.125 14.8723 17.9275 15.3492 17.5758 15.7008C17.2242 16.0524 16.7473 16.25 16.25 16.25H15C14.5027 16.25 14.0258 16.0524 13.6742 15.7008C13.3225 15.3492 13.125 14.8723 13.125 14.375V11.25C13.125 10.7527 13.3225 10.2758 13.6742 9.92416C14.0258 9.57253 14.5027 9.37499 15 9.37499H16.8477C16.6975 7.6735 15.9173 6.08943 14.66 4.93326C13.4027 3.7771 11.7589 3.1322 10.0508 3.12499H10C8.28477 3.1249 6.63147 3.76597 5.36466 4.92235C4.09785 6.07872 3.30905 7.66686 3.15313 9.37499H5C5.49728 9.37499 5.97419 9.57253 6.32583 9.92416C6.67746 10.2758 6.875 10.7527 6.875 11.25V14.375C6.875 14.8723 6.67746 15.3492 6.32583 15.7008C5.97419 16.0524 5.49728 16.25 5 16.25H3.75C3.25272 16.25 2.77581 16.0524 2.42417 15.7008C2.07254 15.3492 1.875 14.8723 1.875 14.375V9.99999C1.87675 8.39053 2.35596 6.81777 3.25196 5.48079C4.14796 4.1438 5.42047 3.1027 6.90843 2.48924C8.39639 1.87579 10.0329 1.71757 11.6108 2.03462C13.1887 2.35167 14.6371 3.12972 15.7727 4.2703C16.5224 5.02366 17.1161 5.91755 17.5197 6.90076C17.9234 7.88396 18.1291 8.93715 18.125 9.99999Z" />
</svg>
