<svg width="20" height="20" viewBox="0 0 20 20" fill="none" xmlns="http://www.w3.org/2000/svg">
<path d="M18.75 10C18.752 10.2564 18.6741 10.507 18.5271 10.717C18.38 10.927 18.1713 11.086 17.9297 11.1719L12.9735 12.9742L11.1719 17.9297C11.0831 18.1689 10.9232 18.3752 10.7137 18.5209C10.5042 18.6666 10.2552 18.7447 10 18.7447C9.74485 18.7447 9.49579 18.6666 9.2863 18.5209C9.07682 18.3752 8.91694 18.1689 8.82814 17.9297L7.02658 12.9734L2.07033 11.1719C1.83111 11.0831 1.62479 10.9232 1.4791 10.7137C1.3334 10.5042 1.25531 10.2552 1.25531 10C1.25531 9.74483 1.3334 9.49577 1.4791 9.28629C1.62479 9.0768 1.83111 8.91692 2.07033 8.82813L7.02658 7.02656L8.82814 2.07031C8.91694 1.83109 9.07682 1.62478 9.2863 1.47908C9.49579 1.33339 9.74485 1.25529 10 1.25529C10.2552 1.25529 10.5042 1.33339 10.7137 1.47908C10.9232 1.62478 11.0831 1.83109 11.1719 2.07031L12.9742 7.02656L17.9297 8.82813C18.1713 8.914 18.38 9.073 18.5271 9.28302C18.6741 9.49304 18.752 9.74365 18.75 10Z" />
</svg>
