<svg width="20" height="20" viewBox="0 0 20 20" fill="none" xmlns="http://www.w3.org/2000/svg">
<path d="M17.5 12.5V16.25C17.5 16.5815 17.3683 16.8995 17.1339 17.1339C16.8995 17.3683 16.5815 17.5 16.25 17.5H3.75C3.41848 17.5 3.10054 17.3683 2.86612 17.1339C2.6317 16.8995 2.5 16.5815 2.5 16.25V12.5C2.5 12.1685 2.6317 11.8505 2.86612 11.6161C3.10054 11.3817 3.41848 11.25 3.75 11.25H9.375V7.43672C8.61622 7.28184 7.94199 6.85073 7.483 6.22698C7.02402 5.60323 6.81299 4.83127 6.89082 4.06077C6.96866 3.29027 7.32982 2.57612 7.90428 2.05676C8.47874 1.53741 9.22558 1.24986 10 1.24986C10.7744 1.24986 11.5213 1.53741 12.0957 2.05676C12.6702 2.57612 13.0313 3.29027 13.1092 4.06077C13.187 4.83127 12.976 5.60323 12.517 6.22698C12.058 6.85073 11.3838 7.28184 10.625 7.43672V11.25H16.25C16.5815 11.25 16.8995 11.3817 17.1339 11.6161C17.3683 11.8505 17.5 12.1685 17.5 12.5ZM12.5 9.37501C12.5 9.54077 12.5658 9.69974 12.6831 9.81695C12.8003 9.93416 12.9592 10 13.125 10H15.625C15.7908 10 15.9497 9.93416 16.0669 9.81695C16.1842 9.69974 16.25 9.54077 16.25 9.37501C16.25 9.20925 16.1842 9.05027 16.0669 8.93306C15.9497 8.81585 15.7908 8.75001 15.625 8.75001H13.125C12.9592 8.75001 12.8003 8.81585 12.6831 8.93306C12.5658 9.05027 12.5 9.20925 12.5 9.37501Z" />
</svg>
