<svg width="24" height="24" viewBox="0 0 24 24" fill="none" xmlns="http://www.w3.org/2000/svg">
<path d="M20.8004 7.79626C21.8412 9.97295 22.0387 12.458 21.355 14.7718C20.6713 17.0856 19.1547 19.0641 17.098 20.3255C15.0413 21.5868 12.5902 22.0417 10.2179 21.6022C7.84557 21.1627 5.72013 19.86 4.25179 17.9455C2.78344 16.0311 2.0763 13.6406 2.26682 11.2354C2.45735 8.83024 3.53204 6.5809 5.28348 4.92151C7.03492 3.26211 9.33895 2.3103 11.7509 2.24978C14.1628 2.18925 16.5117 3.0243 18.3442 4.59376L20.4695 2.46751C20.6102 2.32678 20.8011 2.24771 21.0001 2.24771C21.1991 2.24771 21.39 2.32678 21.5307 2.46751C21.6715 2.60824 21.7505 2.79911 21.7505 2.99813C21.7505 3.19715 21.6715 3.38803 21.5307 3.52876L15.7126 9.34782L12.1773 12.8831L9.93198 15.1284C10.5125 15.5124 11.1883 15.7272 11.884 15.7489C12.5796 15.7705 13.2675 15.5982 13.8708 15.2511C14.474 14.9041 14.9688 14.396 15.2997 13.7837C15.6306 13.1715 15.7846 12.4792 15.7445 11.7844C15.7333 11.5855 15.8016 11.3903 15.9343 11.2417C16.0671 11.0931 16.2534 11.0034 16.4523 10.9922C16.6512 10.981 16.8464 11.0493 16.995 11.182C17.1435 11.3148 17.2333 11.5011 17.2445 11.7C17.305 12.762 17.0414 13.8173 16.4888 14.7262C15.9361 15.6351 15.1204 16.3547 14.1497 16.7896C13.1789 17.2246 12.099 17.3544 11.0528 17.1619C10.0067 16.9694 9.04366 16.4636 8.29136 15.7116C7.35571 14.7724 6.81 13.5141 6.76379 12.1892C6.71758 10.8643 7.1743 9.57101 8.04224 8.56896C8.91018 7.56691 10.1251 6.9303 11.443 6.78697C12.7609 6.64365 14.0842 7.00421 15.1473 7.79626L17.2782 5.66157C15.7152 4.36388 13.7279 3.68941 11.6979 3.7677C9.66793 3.846 7.73844 4.67153 6.28003 6.08576C4.82163 7.49998 3.93715 9.40317 3.79646 11.4298C3.65578 13.4564 4.26881 15.4635 5.51782 17.0657C6.76683 18.6679 8.56375 19.7521 10.5634 20.1101C12.5631 20.4682 14.6246 20.0747 16.3519 19.0055C18.0792 17.9362 19.3506 16.2664 19.9218 14.3169C20.493 12.3674 20.3238 10.2755 19.4467 8.44313C19.3609 8.26361 19.3499 8.05737 19.4162 7.86978C19.4825 7.68218 19.6206 7.5286 19.8001 7.44282C19.9796 7.35704 20.1859 7.34608 20.3735 7.41237C20.5611 7.47865 20.7146 7.61674 20.8004 7.79626Z" fill="#BBBBC0"/>
</svg>
