<svg width="24" height="24" viewBox="0 0 24 24" fill="none" xmlns="http://www.w3.org/2000/svg">
<path d="M3.21938 12.5306L9.96937 19.2806C10.0743 19.3856 10.208 19.4572 10.3535 19.4862C10.4991 19.5151 10.65 19.5003 10.7871 19.4435C10.9242 19.3867 11.0414 19.2904 11.1238 19.167C11.2062 19.0436 11.2501 18.8984 11.25 18.75V12.75H20.25C20.4489 12.75 20.6397 12.671 20.7803 12.5303C20.921 12.3897 21 12.1989 21 12C21 11.8011 20.921 11.6103 20.7803 11.4697C20.6397 11.329 20.4489 11.25 20.25 11.25H11.25V5.25001C11.2501 5.10159 11.2062 4.95647 11.1238 4.83302C11.0414 4.70958 10.9242 4.61336 10.7871 4.55654C10.65 4.49973 10.4991 4.48488 10.3535 4.51386C10.208 4.54285 10.0743 4.61438 9.96937 4.71939L3.21938 11.4694C3.14964 11.539 3.09432 11.6218 3.05658 11.7128C3.01884 11.8039 2.99941 11.9014 2.99941 12C2.99941 12.0986 3.01884 12.1962 3.05658 12.2872C3.09432 12.3783 3.14964 12.461 3.21938 12.5306Z"/>
</svg>
