<svg width="53" height="53" viewBox="0 0 53 53" fill="none" xmlns="http://www.w3.org/2000/svg">
<path d="M45.3831 45.3831C44.6535 46.1211 43.7709 46.6732 42.8579 46.9627C41.945 47.2522 41.0472 47.2646 40.2891 46.9982L24.6206 41.6483L6.61528 52.0135C5.74222 52.51 4.81261 52.7616 3.95136 52.7344C3.09011 52.7073 2.33846 52.4027 1.7974 51.8617C1.25634 51.3206 0.951778 50.569 0.924638 49.7077C0.897498 48.8465 1.14908 47.9169 1.64558 47.0438L12.013 29.0362L6.66083 13.3699C6.40777 12.6085 6.42796 11.7134 6.71869 10.8048C7.00943 9.89617 7.55678 9.01764 8.28721 8.2872C9.01765 7.55677 9.89617 7.00942 10.8048 6.71869C11.7134 6.42795 12.6085 6.40776 13.3699 6.66083L29.0363 12.013L47.0438 1.64557C47.9169 1.14907 48.8465 0.897491 49.7077 0.924631C50.569 0.951771 51.3206 1.25633 51.8617 1.79739C52.4027 2.33845 52.7073 3.0901 52.7344 3.95135C52.7616 4.81261 52.51 5.74221 52.0135 6.61527L41.6477 24.6245L46.9982 40.2891C47.2646 41.0472 47.2522 41.945 46.9627 42.8579C46.6732 43.7709 46.1211 44.6535 45.3831 45.3831Z" fill="#F1F3F5"/>
</svg>
