<svg width="20" height="20" viewBox="0 0 20 20" fill="none" xmlns="http://www.w3.org/2000/svg">
<path d="M18.125 9.99998C18.1225 11.9858 17.3939 13.9021 16.0765 15.388C14.7591 16.8739 12.9439 17.8268 10.9727 18.0672C10.9288 18.0721 10.8843 18.0677 10.8423 18.0543C10.8002 18.0408 10.7615 18.0186 10.7286 17.9891C10.6958 17.9595 10.6695 17.9234 10.6517 17.883C10.6338 17.8426 10.6247 17.7988 10.625 17.7547V11.875H12.5C12.5857 11.8752 12.6705 11.8577 12.7492 11.8238C12.8278 11.7898 12.8987 11.74 12.9573 11.6775C13.0159 11.615 13.061 11.5412 13.0899 11.4605C13.1187 11.3798 13.1307 11.2941 13.125 11.2086C13.1112 11.0479 13.0371 10.8983 12.9175 10.7901C12.7979 10.6818 12.6418 10.6228 12.4805 10.625H10.625V8.74998C10.625 8.41846 10.7567 8.10052 10.9911 7.8661C11.2256 7.63168 11.5435 7.49998 11.875 7.49998H13.125C13.2107 7.50017 13.2955 7.48274 13.3742 7.44877C13.4528 7.41481 13.5237 7.36503 13.5823 7.30253C13.6409 7.24004 13.686 7.16616 13.7149 7.08548C13.7437 7.00481 13.7557 6.91907 13.75 6.83357C13.7362 6.67258 13.6618 6.52283 13.5419 6.41452C13.422 6.30621 13.2655 6.24741 13.1039 6.24998H11.875C11.212 6.24998 10.5761 6.51337 10.1073 6.98221C9.63842 7.45105 9.37503 8.08694 9.37503 8.74998V10.625H7.50003C7.41435 10.6248 7.32954 10.6422 7.25088 10.6762C7.17222 10.7102 7.10139 10.7599 7.04278 10.8224C6.98416 10.8849 6.93903 10.9588 6.91017 11.0395C6.88131 11.1201 6.86935 11.2059 6.87503 11.2914C6.88885 11.4524 6.96322 11.6021 7.08313 11.7104C7.20303 11.8187 7.35956 11.8775 7.52112 11.875H9.37503V17.7562C9.37529 17.8003 9.36623 17.844 9.34842 17.8843C9.33061 17.9247 9.30446 17.9608 9.2717 17.9903C9.23894 18.0198 9.2003 18.0421 9.15832 18.0556C9.11634 18.0691 9.07198 18.0736 9.02815 18.0687C7.00421 17.8222 5.14656 16.8249 3.8229 15.2741C2.49923 13.7233 1.80603 11.732 1.88049 9.69451C2.03674 5.47576 5.45393 2.04607 9.67581 1.88201C10.7688 1.83967 11.8592 2.01822 12.8816 2.40698C13.9041 2.79574 14.8376 3.38673 15.6264 4.14459C16.4152 4.90244 17.043 5.81161 17.4723 6.81769C17.9016 7.82378 18.1236 8.90612 18.125 9.99998Z" />
</svg>
