<svg width="20" height="20" viewBox="0 0 20 20" fill="none" xmlns="http://www.w3.org/2000/svg">
<path d="M10.8297 10C11.1748 10.0001 11.5185 10.0428 11.8531 10.1273C11.8086 10.7688 11.5922 11.2992 11.2195 11.6594C10.872 11.9972 10.4066 12.1866 9.92188 12.1875C8.99453 12.1875 8.75 11.5953 8.75 11.2445C8.75 10.3906 9.82812 10 10.8297 10ZM17.5 10C17.5 15.0875 14.6961 18.125 10 18.125C5.30391 18.125 2.5 15.0875 2.5 10C2.5 4.9125 5.30391 1.875 10 1.875C14.6961 1.875 17.5 4.9125 17.5 10ZM5.625 10C5.625 6.63516 7.05625 5 10 5C12.0578 5 13.3594 5.7875 13.9695 7.40859C14.0282 7.56399 14.1461 7.68974 14.2975 7.75816C14.4488 7.82658 14.6212 7.83208 14.7766 7.77344C14.932 7.7148 15.0577 7.59683 15.1261 7.44548C15.1945 7.29414 15.2 7.12181 15.1414 6.96641C14.1328 4.30781 11.7891 3.75 10 3.75C7.96094 3.75 6.44375 4.42969 5.49062 5.77031C4.75 6.81172 4.375 8.23438 4.375 10C4.375 11.7656 4.75 13.1883 5.49062 14.2297C6.44375 15.5703 7.96094 16.25 10 16.25C11.9102 16.25 13.1109 15.5625 13.782 14.9859C14.6227 14.2633 15.125 13.2758 15.125 12.3438C15.125 11.2266 14.6102 10.2508 13.675 9.59609C13.4827 9.46231 13.2797 9.34472 13.068 9.24453C12.9047 8.1 12.2867 7.23281 11.3227 6.81719C10.1898 6.32812 8.75 6.55703 7.90703 7.35859C7.78665 7.47255 7.71647 7.62967 7.71192 7.79537C7.70738 7.96108 7.76885 8.1218 7.88281 8.24219C7.99677 8.36257 8.15389 8.43275 8.31959 8.43729C8.4853 8.44184 8.64602 8.38037 8.76641 8.26641C9.19062 7.86484 10.0781 7.64141 10.8289 7.96562C11.2114 8.12725 11.514 8.4341 11.6703 8.81875C11.3923 8.77466 11.1112 8.75246 10.8297 8.75234C8.86953 8.75 7.5 9.77734 7.5 11.2445C7.5 12.5156 8.51562 13.4375 9.92188 13.4375C10.7315 13.4354 11.5087 13.1192 12.0898 12.5555C12.457 12.1969 12.8797 11.6023 13.0406 10.6805C13.3043 10.8691 13.5181 11.1191 13.6635 11.4089C13.8089 11.6987 13.8815 12.0196 13.875 12.3438C13.875 13.4148 12.6438 15 10 15C7.05625 15 5.625 13.3648 5.625 10Z" />
</svg>
