<svg width="24" height="24" viewBox="0 0 24 24" fill="none" xmlns="http://www.w3.org/2000/svg">
<path d="M20 7.05554V11.4998C20.0001 11.6098 19.9666 11.7173 19.9038 11.8087C19.8411 11.9002 19.7518 11.9714 19.6473 12.0135C19.5428 12.0556 19.4279 12.0666 19.317 12.0451C19.2061 12.0237 19.1042 11.9707 19.0243 11.8929L17.1429 10.0631L12.9759 14.115C12.9228 14.1667 12.8598 14.2077 12.7904 14.2356C12.721 14.2636 12.6467 14.278 12.5716 14.278C12.4965 14.278 12.4221 14.2636 12.3528 14.2356C12.2834 14.2077 12.2204 14.1667 12.1673 14.115L9.71449 11.7297L4.97601 16.3372C4.86879 16.4414 4.72337 16.5 4.57173 16.5C4.4201 16.5 4.27468 16.4414 4.16746 16.3372C4.06024 16.233 4 16.0916 4 15.9442C4 15.7967 4.06024 15.6553 4.16746 15.5511L9.31021 10.5513C9.36328 10.4996 9.4263 10.4586 9.49567 10.4307C9.56504 10.4027 9.6394 10.3883 9.71449 10.3883C9.78958 10.3883 9.86394 10.4027 9.93331 10.4307C10.0027 10.4586 10.0657 10.4996 10.1188 10.5513L12.5716 12.9366L16.3351 9.27769L14.453 7.44858C14.373 7.37089 14.3185 7.27186 14.2964 7.16404C14.2743 7.05622 14.2856 6.94445 14.3289 6.84288C14.3722 6.74132 14.4455 6.65452 14.5395 6.59349C14.6336 6.53245 14.7442 6.49991 14.8572 6.5H19.4286C19.5801 6.5 19.7255 6.55853 19.8326 6.66271C19.9398 6.7669 20 6.9082 20 7.05554Z" fill="#F1F3F5"/>
</svg>
