<svg width="24" height="24" viewBox="0 0 24 24" fill="none" xmlns="http://www.w3.org/2000/svg">
<path d="M20 12.0002V16.4445C20 16.5918 19.9398 16.7331 19.8326 16.8373C19.7255 16.9415 19.5801 17 19.4286 17H14.8572C14.7442 17.0001 14.6336 16.9676 14.5395 16.9065C14.4455 16.8455 14.3722 16.7587 14.3289 16.6571C14.2856 16.5556 14.2743 16.4438 14.2964 16.336C14.3185 16.2281 14.373 16.1291 14.453 16.0514L16.3351 14.2223L12.5716 10.5634L10.1188 12.9487C10.0657 13.0004 10.0027 13.0414 9.93331 13.0693C9.86394 13.0973 9.78958 13.1117 9.71449 13.1117C9.6394 13.1117 9.56504 13.0973 9.49567 13.0693C9.4263 13.0414 9.36328 13.0004 9.31021 12.9487L4.16746 7.94889C4.06024 7.84465 4 7.70327 4 7.55585C4 7.40843 4.06024 7.26705 4.16746 7.1628C4.27468 7.05856 4.4201 7 4.57173 7C4.72337 7 4.86879 7.05856 4.97601 7.1628L9.71449 11.7703L12.1673 9.38496C12.2204 9.33331 12.2834 9.29233 12.3528 9.26437C12.4221 9.23642 12.4965 9.22203 12.5716 9.22203C12.6467 9.22203 12.721 9.23642 12.7904 9.26437C12.8598 9.29233 12.9228 9.33331 12.9759 9.38496L17.1429 13.4369L19.0243 11.6071C19.1042 11.5293 19.2061 11.4763 19.317 11.4549C19.4279 11.4334 19.5428 11.4444 19.6473 11.4865C19.7518 11.5286 19.8411 11.5998 19.9038 11.6913C19.9666 11.7827 20.0001 11.8902 20 12.0002Z" fill="white"/>
</svg>
