<svg width="24" height="24" viewBox="0 0 24 24" fill="none" xmlns="http://www.w3.org/2000/svg">
<path d="M19.5967 10.8226L16.3805 13.6993L17.3604 18.0015C17.4145 18.235 17.4005 18.4799 17.3204 18.7053C17.2402 18.9306 17.0975 19.1263 16.9101 19.2676C16.7227 19.4089 16.4992 19.4894 16.2677 19.499C16.0361 19.5087 15.8071 19.4469 15.6094 19.3217L12.0001 17.0191L8.38876 19.3217C8.19109 19.4462 7.9623 19.5073 7.73119 19.4974C7.50008 19.4874 7.27699 19.4067 7.09 19.2656C6.90302 19.1244 6.76051 18.9291 6.68041 18.7041C6.60031 18.4792 6.58621 18.2347 6.63988 18.0015L7.62331 13.6993L4.40716 10.8226C4.23227 10.6659 4.10578 10.4592 4.0435 10.2285C3.98122 9.99774 3.9859 9.75308 4.05696 9.52506C4.12802 9.29705 4.26231 9.09579 4.44306 8.94642C4.6238 8.79705 4.84299 8.70618 5.07326 8.68517L9.29 8.33252L10.9167 4.25187C11.0047 4.02948 11.1546 3.83925 11.3472 3.70537C11.5398 3.57148 11.7665 3.5 11.9984 3.5C12.2303 3.5 12.4569 3.57148 12.6495 3.70537C12.8422 3.83925 12.992 4.02948 13.0801 4.25187L14.706 8.33252L18.9227 8.68517C19.1535 8.7054 19.3733 8.79576 19.5547 8.94492C19.7361 9.09409 19.871 9.29543 19.9425 9.52372C20.014 9.75201 20.0189 9.9971 19.9567 10.2283C19.8944 10.4594 19.7677 10.6664 19.5924 10.8233L19.5967 10.8226Z" fill="#F1F3F5"/>
</svg>
