<svg width="20" height="20" viewBox="0 0 20 20" fill="none" xmlns="http://www.w3.org/2000/svg">
<path d="M17.3336 6.49687C18.2009 8.31078 18.3655 10.3817 17.7958 12.3098C17.226 14.238 15.9622 15.8867 14.2482 16.9379C12.5343 17.989 10.4918 18.3681 8.51483 18.0018C6.53789 17.6355 4.76669 16.55 3.54307 14.9546C2.31946 13.3592 1.73017 11.3671 1.88894 9.36284C2.04771 7.35853 2.94328 5.48408 4.40282 4.10125C5.86235 2.71842 7.78237 1.92525 9.79233 1.87481C11.8023 1.82437 13.7597 2.52024 15.2867 3.82812L17.0578 2.05625C17.1751 1.93897 17.3342 1.87309 17.5 1.87309C17.6659 1.87309 17.8249 1.93897 17.9422 2.05625C18.0595 2.17352 18.1254 2.33258 18.1254 2.49844C18.1254 2.66429 18.0595 2.82335 17.9422 2.94062L13.0938 7.78984L10.1477 10.7359L8.27657 12.607C8.76031 12.927 9.32353 13.106 9.90322 13.1241C10.4829 13.1421 11.0562 12.9985 11.5589 12.7093C12.0616 12.4201 12.4739 11.9966 12.7497 11.4864C13.0254 10.9762 13.1538 10.3993 13.1203 9.82031C13.111 9.65455 13.1679 9.49188 13.2785 9.36807C13.3891 9.24427 13.5444 9.16948 13.7102 9.16015C13.8759 9.15083 14.0386 9.20774 14.1624 9.31835C14.2862 9.42897 14.361 9.58424 14.3703 9.75C14.4207 10.635 14.2011 11.5144 13.7406 12.2718C13.28 13.0292 12.6003 13.6289 11.7913 13.9913C10.9824 14.3538 10.0824 14.462 9.2106 14.3016C8.3388 14.1411 7.53631 13.7197 6.90938 13.093C6.12968 12.3103 5.67492 11.2617 5.63641 10.1577C5.5979 9.0536 5.9785 7.97584 6.70178 7.14079C7.42507 6.30575 8.43748 5.77525 9.53574 5.65581C10.634 5.53636 11.7368 5.83683 12.6227 6.49687L14.3984 4.71797C13.0959 3.63656 11.4398 3.0745 9.74818 3.13974C8.05652 3.20499 6.44862 3.89294 5.23328 5.07146C4.01794 6.24997 3.28087 7.83596 3.16364 9.52481C3.0464 11.2137 3.55726 12.8863 4.5981 14.2214C5.63894 15.5566 7.13637 16.4601 8.80279 16.7584C10.4692 17.0568 12.1871 16.7289 13.6265 15.8379C15.0659 14.9468 16.1254 13.5553 16.6014 11.9307C17.0774 10.3061 16.9364 8.56292 16.2055 7.03594C16.134 6.88634 16.1249 6.71447 16.1801 6.55814C16.2353 6.40181 16.3504 6.27383 16.5 6.20234C16.6496 6.13086 16.8215 6.12173 16.9778 6.17696C17.1341 6.2322 17.2621 6.34727 17.3336 6.49687Z" fill="#BBBBC0"/>
</svg>
