<svg width="15" height="17" viewBox="0 0 15 17" fill="none" xmlns="http://www.w3.org/2000/svg">
<path d="M8.32969 8.125C8.67478 8.12507 9.01854 8.16784 9.35312 8.25234C9.30859 8.89375 9.09219 9.42422 8.71953 9.78438C8.37197 10.1222 7.9066 10.3116 7.42188 10.3125C6.49453 10.3125 6.25 9.72031 6.25 9.36953C6.25 8.51562 7.32812 8.125 8.32969 8.125ZM15 8.125C15 13.2125 12.1961 16.25 7.5 16.25C2.80391 16.25 0 13.2125 0 8.125C0 3.0375 2.80391 0 7.5 0C12.1961 0 15 3.0375 15 8.125ZM3.125 8.125C3.125 4.76016 4.55625 3.125 7.5 3.125C9.55781 3.125 10.8594 3.9125 11.4695 5.53359C11.5282 5.68899 11.6461 5.81474 11.7975 5.88316C11.9488 5.95158 12.1212 5.95708 12.2766 5.89844C12.432 5.8398 12.5577 5.72183 12.6261 5.57048C12.6945 5.41914 12.7 5.24681 12.6414 5.09141C11.6328 2.43281 9.28906 1.875 7.5 1.875C5.46094 1.875 3.94375 2.55469 2.99062 3.89531C2.25 4.93672 1.875 6.35938 1.875 8.125C1.875 9.89062 2.25 11.3133 2.99062 12.3547C3.94375 13.6953 5.46094 14.375 7.5 14.375C9.41016 14.375 10.6109 13.6875 11.282 13.1109C12.1227 12.3883 12.625 11.4008 12.625 10.4688C12.625 9.35156 12.1102 8.37578 11.175 7.72109C10.9827 7.58731 10.7797 7.46972 10.568 7.36953C10.4047 6.225 9.78672 5.35781 8.82266 4.94219C7.68984 4.45312 6.25 4.68203 5.40703 5.48359C5.28665 5.59755 5.21647 5.75467 5.21192 5.92037C5.20738 6.08608 5.26885 6.2468 5.38281 6.36719C5.49677 6.48757 5.65389 6.55775 5.81959 6.56229C5.9853 6.56684 6.14602 6.50537 6.26641 6.39141C6.69062 5.98984 7.57812 5.76641 8.32891 6.09062C8.71136 6.25225 9.014 6.5591 9.17031 6.94375C8.89227 6.89966 8.6112 6.87746 8.32969 6.87734C6.36953 6.875 5 7.90234 5 9.36953C5 10.6406 6.01562 11.5625 7.42188 11.5625C8.23151 11.5604 9.00873 11.2442 9.58984 10.6805C9.95703 10.3219 10.3797 9.72734 10.5406 8.80547C10.8043 8.9941 11.0181 9.24413 11.1635 9.53393C11.3089 9.82374 11.3815 10.1446 11.375 10.4688C11.375 11.5398 10.1438 13.125 7.5 13.125C4.55625 13.125 3.125 11.4898 3.125 8.125Z" fill="#BBBBC0"/>
</svg>
